PathFileType	4	(X/Y/Z)	C:/Users/opensim2020/Desktop/walking_exp_matlab/subject06_walking15_straight_04.trc																																																																																																																																											
DataRate	CameraRate	NumFrames	NumMarkers	Units	OrigDataRate	OrigDataStartFrame	OrigNumFrames																																																																																																																																							
100	100	7	47	mm	100	2979	157																																																																																																																																							
Frame#	Time	LFHD			RFHD			LBHD			RBHD			C7			T10			CLAV			STRN			RBAK			LSHO			LUPA			LELB			LFRM			LWRA			LWRB			LFIN			RSHO			RUPA			RELB			RFRM			RWRA			RWRB			RFIN			LASI			RASI			LPSI			RPSI			LTHI			LKNE			LTIB			LANK			LHEE			LTOE			RTHI			RKNE			RTIB			RANK			RHEE			RTOE			*39			*40			*41			*42			*43			*44			*45			*46		
		X1	Y1	Z1	X2	Y2	Z2	X3	Y3	Z3	X4	Y4	Z4	X5	Y5	Z5	X6	Y6	Z6	X7	Y7	Z7	X8	Y8	Z8	X9	Y9	Z9	X10	Y10	Z10	X11	Y11	Z11	X12	Y12	Z12	X13	Y13	Z13	X14	Y14	Z14	X15	Y15	Z15	X16	Y16	Z16	X17	Y17	Z17	X18	Y18	Z18	X19	Y19	Z19	X20	Y20	Z20	X21	Y21	Z21	X22	Y22	Z22	X23	Y23	Z23	X24	Y24	Z24	X25	Y25	Z25	X26	Y26	Z26	X27	Y27	Z27	X28	Y28	Z28	X29	Y29	Z29	X30	Y30	Z30	X31	Y31	Z31	X32	Y32	Z32	X33	Y33	Z33	X34	Y34	Z34	X35	Y35	Z35	X36	Y36	Z36	X37	Y37	Z37	X38	Y38	Z38	X39	Y39	Z39	X40	Y40	Z40	X41	Y41	Z41	X42	Y42	Z42	X43	Y43	Z43	X44	Y44	Z44	X45	Y45	Z45	X46	Y46	Z46	X47	Y47	Z47
																																																																																																																																														
118	1.17	234.26201	1653.80945	911.89478	254.36604	1646.08582	1042.69641	100.29229	1605.20337	933.74512	122.18634	1602.6731	1062.06763	102.28014	1447.33484	984.91614	63.86575	1118.07971	990.40765	210.59489	1367.56909	979.6087	245.40445	1193.54688	969.93463	27.45163	1278.42334	1062.08838	149.58678	1402.88989	821.72144	178.5869	1206.73755	739.74225	203.82271	1097.52893	720.69012	284.95184	970.64197	698.51862	381.78973	888.89502	745.8905	333.1994	861.38354	702.77478	405.24722	807.78247	702.83984	171.4761	1397.53796	1143.66821	107.25487	1205.94312	1229.17725	95.63091	1084.24451	1240.9762	87.35555	964.40497	1260.31079	117.6116	814.35938	1232.33862	64.48771	828.75452	1273.09668	81.55658	745.32849	1275.10938	240.21361	957.58008	878.60553	244.71126	969.22321	1099.13416	83.44548	984.55841	913.57184	93.49783	986.36969	1080.75476	150.82227	641.83868	836.28955	133.63742	478.70334	863.4201	50.83833	233.84639	880.46344	11.28366	68.91789	931.90228	-30.76397	60.29854	978.49792	151.70782	33.47152	928.50293	263.1286	642.18475	1173.26855	306.86417	523.47943	1152.18896	269.47644	261.5285	1155.11584	264.44675	74.63502	1117.85461	234.92166	47.91763	1066.62463	413.32306	40.73212	1143.69055	146.16365	1698.12073	985.15924	NaN	NaN	NaN	NaN	NaN	NaN	NaN	NaN	NaN	NaN	NaN	NaN	NaN	NaN	NaN	NaN	NaN	NaN	NaN	NaN	NaN
119	1.18	244.28357	1652.58093	912.21362	264.66074	1644.77478	1042.85168	110.50151	1603.80042	934.32501	132.57765	1601.16785	1062.49475	112.53725	1445.95581	985.28021	74.08044	1116.8606	990.7395	220.83174	1366.24475	979.73297	255.50856	1192.11804	969.75262	37.87407	1277.13013	1062.46924	159.35056	1401.58142	822.14307	190.33493	1206.1427	739.77185	217.22173	1097.36389	720.53259	301.54135	972.57678	698.75616	400.5462	893.85297	746.56506	352.95413	864.68402	703.12781	426.60529	813.5462	703.79779	182.1057	1396.09631	1143.92908	116.50628	1204.82581	1228.88391	104.1016	1083.29736	1241.05444	94.13696	963.61414	1260.55652	122.02366	812.94012	1232.97412	69.24546	828.33783	1273.60193	84.70414	744.52509	1275.66064	250.34909	955.96704	878.43872	255.17418	967.60571	1099.06213	93.56083	983.41095	913.9234	103.83414	985.19653	1081.06775	158.42421	640.88422	836.75818	138.91965	477.9743	863.69971	53.04911	234.06831	880.8006	11.74094	69.50893	932.18298	-30.39063	61.18427	978.85736	151.84216	33.40537	928.61133	270.88983	639.79895	1173.62158	314.66895	521.302	1151.68689	291.45486	258.44342	1156.20813	297.54507	71.41371	1119.34937	268.1713	45.41018	1069.41895	447.2717	42.03534	1143.98547	156.34608	1696.74609	985.67822	NaN	NaN	NaN	NaN	NaN	NaN	NaN	NaN	NaN	NaN	NaN	NaN	NaN	NaN	NaN	NaN	NaN	NaN	NaN	NaN	NaN
120	1.19	254.31731	1651.36035	912.44775	275.03955	1643.4447	1043.11987	120.56252	1602.46228	934.78485	143.065	1599.75513	1063.12134	122.68409	1444.7041	985.67792	84.58806	1115.46777	991.19696	231.0799	1364.91101	979.93628	265.69568	1190.7251	969.67346	48.20709	1275.76355	1062.78735	169.20798	1400.30676	822.57452	201.94772	1205.50793	739.94031	230.61511	1097.35632	720.25342	317.64084	974.48639	699.11993	418.73947	898.79175	747.4115	372.0545	868.11047	704.16858	447.55215	819.39197	704.71198	192.68544	1394.59412	1144.23889	125.80939	1203.79333	1229.30042	112.66213	1082.30273	1241.27515	101.19524	962.77197	1260.89661	127.18254	811.81775	1233.77014	74.43395	827.84021	1274.13892	88.47542	743.73315	1276.26343	260.55069	954.28528	878.36328	265.64185	965.91418	1099.00574	103.73342	982.33435	914.23871	114.35389	984.04126	1081.55823	165.73872	640.05255	837.09528	143.89998	477.35208	863.94409	55.23705	234.38849	881.06207	12.19548	70.18729	932.44659	-29.54005	61.87125	979.0047	152.03571	33.34064	928.69098	278.13361	637.30786	1174.14453	322.49991	519.02875	1151.25452	313.09415	256.35471	1157.23132	329.17194	70.33377	1121.48779	299.52005	44.50631	1071.6825	479.37668	42.24517	1143.57141	166.47899	1695.38208	986.25928	NaN	NaN	NaN	NaN	NaN	NaN	NaN	NaN	NaN	NaN	NaN	NaN	NaN	NaN	NaN	NaN	NaN	NaN	NaN	NaN	NaN
121	1.2	264.29623	1650.28625	912.85858	285.31631	1642.20178	1043.43652	130.95288	1601.16309	935.84766	153.52188	1598.26282	1063.63818	132.89957	1443.47229	986.22742	95.01088	1114.19507	991.66064	241.21353	1363.65454	980.22095	275.93079	1189.42896	969.7132	58.59318	1274.21826	1063.18799	179.20953	1399.19836	822.85614	213.39946	1204.79565	740.16406	243.42552	1097.06104	720.39203	333.44247	976.3512	699.56299	436.08994	903.5799	748.47443	390.69406	871.50769	704.89423	467.58133	825.10175	705.92035	203.13289	1393.13293	1144.66199	135.28735	1202.72595	1229.65588	121.33071	1081.29468	1241.56274	108.61275	961.92767	1261.30884	133.01801	810.56805	1234.35583	80.15739	827.31396	1274.70459	93.02607	743.02344	1276.91809	270.8959	952.59998	878.36847	276.11584	964.19189	1099.13135	114.13985	981.26904	914.62378	124.90615	983.0061	1082.00781	173.0685	639.34302	837.27765	148.67744	476.92938	864.0946	57.38792	234.90053	881.23401	12.5821	71.12756	932.60773	-29.72688	63.43456	979.32336	152.17244	33.29041	928.77319	285.17551	634.94775	1174.901	330.65601	517.39716	1151.63232	334.14786	255.65846	1158.61804	357.90768	70.44753	1123.39258	327.99292	44.68321	1073.04541	509.22791	43.17684	1142.14502	176.62242	1694.07959	986.90845	NaN	NaN	NaN	NaN	NaN	NaN	NaN	NaN	NaN	NaN	NaN	NaN	NaN	NaN	NaN	NaN	NaN	NaN	NaN	NaN	NaN
122	1.21	274.28455	1649.29651	913.33472	295.73071	1641.16699	1043.81274	141.02928	1599.95703	936.57617	163.97958	1597.05481	1064.34778	142.99478	1442.28259	986.76361	105.60108	1112.88379	992.08575	251.40268	1362.55029	980.58398	286.18661	1188.24329	969.8454	69.00504	1272.73828	1063.5802	189.20844	1397.9823	823.26031	224.73953	1204.02209	740.45734	255.8642	1096.49146	720.83685	348.56403	978.0741	700.22937	453.38724	908.50848	749.38312	408.69464	874.89948	706.31085	486.98535	830.80469	707.18573	213.61002	1391.77747	1145.12695	144.88228	1201.61719	1229.81519	130.23868	1080.36401	1242.01172	116.38036	961.09894	1261.84021	138.85921	809.53271	1235.11938	86.41015	826.79114	1275.38562	98.34944	742.36334	1277.59338	281.41605	951.07599	878.4939	286.73489	962.64355	1099.30994	124.71897	980.3017	914.85883	135.51021	982.06177	1082.47974	180.46021	638.80212	837.55322	153.48323	476.68954	864.15759	59.44518	235.60033	881.33496	13.01606	72.22576	932.66278	-29.38226	64.92715	979.35126	152.21858	33.26099	928.80011	292.25775	632.76978	1175.84106	339.73972	516.427	1151.61694	354.14301	255.74255	1160.07129	384.38696	71.17863	1124.67249	356.63632	43.48885	1074.18347	537.7912	47.12207	1141.23145	186.73412	1692.93433	987.66229	NaN	NaN	NaN	NaN	NaN	NaN	NaN	NaN	NaN	NaN	NaN	NaN	NaN	NaN	NaN	NaN	NaN	NaN	NaN	NaN	NaN
123	1.22	284.37161	1648.43787	913.81714	306.10056	1640.02893	1044.19287	151.14723	1598.84656	937.44525	174.41727	1595.81042	1065.05603	153.36784	1441.17578	987.30035	116.21767	1111.60449	992.59033	261.74673	1361.52332	981.0152	296.76633	1187.17456	970.1684	79.39266	1271.3927	1064.06213	199.32747	1397.02429	823.57684	235.92224	1203.25537	740.83435	268.07724	1096.03625	721.21564	363.39233	979.68787	700.92566	469.82422	913.17554	750.49878	426.03107	878.0694	707.69141	505.59024	836.35834	708.64087	223.95461	1390.50916	1145.64124	154.54825	1200.69141	1230.31482	139.28229	1079.4325	1242.48975	124.5034	960.32562	1262.40088	145.67921	808.4306	1235.68628	93.26472	826.30994	1276.12244	104.46693	741.71204	1278.31934	291.9863	949.65771	878.78455	297.41721	961.21948	1099.59265	135.44203	979.47119	915.23846	146.15172	981.1543	1082.8623	187.88367	638.43939	837.77167	158.45918	476.58075	864.05328	61.4048	236.59248	881.25873	13.45995	73.53034	932.573	-29.02169	66.68222	979.24677	152.24483	33.25059	928.7926	300.14474	631.30017	1177.245	348.8891	515.70624	1151.46985	372.47852	255.99957	1161.38306	410.03516	71.93765	1125.76758	382.83945	42.96645	1075.63965	565.69684	54.06836	1140.5802	196.90106	1691.82129	988.40283	NaN	NaN	NaN	NaN	NaN	NaN	NaN	NaN	NaN	NaN	NaN	NaN	NaN	NaN	NaN	NaN	NaN	NaN	NaN	NaN	NaN
124	1.23	294.37027	1647.23596	914.39697	316.48318	1638.82251	1044.66614	161.06636	1597.74036	938.04871	184.84723	1594.57922	1065.76196	163.72566	1439.78296	987.75513	127.02136	1110.31458	993.09845	272.12924	1360.43811	981.54486	307.48099	1186.18152	970.60614	90.02774	1270.0354	1064.34729	209.54518	1396.02551	824.02997	246.95715	1202.45593	741.31464	280.38434	1095.74854	721.49628	377.76797	981.17426	701.80957	485.75681	917.70068	751.74396	442.94107	881.22052	709.11719	523.55334	841.74652	710.19806	234.16968	1389.28333	1146.18152	164.28787	1199.82837	1231.15161	148.58372	1078.58252	1243.06848	133.05714	959.578	1263.08569	152.81433	807.55817	1236.63318	100.78751	825.79156	1276.92297	111.37149	741.10071	1279.15625	302.66165	948.30884	879.24817	308.37326	959.87225	1099.96753	146.18448	978.58569	915.62366	157.01634	980.16229	1083.41968	195.3374	638.14978	838.00867	163.68228	476.50949	863.86047	63.7346	237.67195	880.94348	13.93582	74.9678	932.24731	-28.6467	68.56438	978.86438	152.36417	33.18331	928.69562	309.3811	630.19775	1178.23511	358.04694	514.76312	1152.00391	388.67841	255.79454	1162.03943	434.73779	72.87122	1126.43445	409.07831	41.8625	1077.04028	592.05243	62.46308	1139.69849	207.18475	1690.68115	989.2149	NaN	NaN	NaN	NaN	NaN	NaN	NaN	NaN	NaN	NaN	NaN	NaN	NaN	NaN	NaN	NaN	NaN	NaN	NaN	NaN	NaN
